<svg height="512" viewBox="0 0 64 64" width="512" xmlns="http://www.w3.org/2000/svg"><g id="Fill_Outline" data-name="Fill Outline"><g id="Color"><g><rect fill="#93999a" height="58" rx="4" width="38" x="3" y="3"/><path d="m36 49a22 22 0 0 1 -22-22v-24h-7a4 4 0 0 0 -4 4v50a4 4 0 0 0 4 4h30a4 4 0 0 0 4-4v-8z" fill="#656b76"/><path d="m7 11h30v41h-30z" fill="#aae1f9"/><path d="m18 3a4 4 0 0 0 4 4h13a4 4 0 0 1 4 4v24a2 2 0 0 0 2 2v-30a4 4 0 0 0 -4-4z" fill="#d0d8da"/><path d="m37 49h-1a22 22 0 0 1 -22-22v-16h-7v41h30z" fill="#57b7eb"/><g><path d="m11 16h4v28h-4z" fill="#4891d3"/><path d="m11 20h33v20h-33z" fill="#fcbc04"/><path d="m30 26v9a11 11 0 0 1 -11-11v-4h-8v20h33v-20z" fill="#e59730"/><path d="m33 27h11v-7z" fill="#fcbc04"/><path d="m33 27v20h28l-3.231-5 3.231-5-3.231-5 3.231-5z" fill="#f9e109"/><path d="m48 42a15 15 0 0 1 -15-15v20h28l-3.231-5z" fill="#fcbc04"/></g></g></g><g id="Outline_copy" data-name="Outline copy"><g fill="#434951"><path d="m41 50a1 1 0 0 0 -1 1v6a3 3 0 0 1 -3 3h-30a3 3 0 0 1 -3-3v-17a1 1 0 0 0 -2 0v17a5.006 5.006 0 0 0 5 5h30a5.006 5.006 0 0 0 5-5v-6a1 1 0 0 0 -1-1z"/><circle cx="7" cy="7" r="1"/><circle cx="11" cy="7" r="1"/><path d="m26 57a1 1 0 0 0 0-2h-8a1 1 0 0 0 0 2z"/><path d="m58.959 42 2.881-4.457a1 1 0 0 0 0-1.086l-2.881-4.457 2.881-4.457a1 1 0 0 0 -.84-1.543h-16v-6a1 1 0 0 0 -1-1h-2v-12a5.006 5.006 0 0 0 -5-5h-30a5.006 5.006 0 0 0 -5 5v29a1 1 0 0 0 2 0v-29a3 3 0 0 1 3-3h30a3 3 0 0 1 3 3v12h-7a1 1 0 0 0 0 2h7.566l-8.1 5.156.01.016a.982.982 0 0 0 -.476.828v12h-20v-18h17a1 1 0 0 0 0-2h-13v-3a1 1 0 0 0 -1-1h-4a1 1 0 0 0 -1 1v28a1 1 0 0 0 1 1h4a1 1 0 0 0 0-2h-3v-2h20v6a1 1 0 0 0 1 1h3v3h-28v-39h28v4a1 1 0 0 0 2 0v-5a1 1 0 0 0 -1-1h-30a1 1 0 0 0 -1 1v41a1 1 0 0 0 1 1h30a1 1 0 0 0 1-1v-4h11a1 1 0 0 0 0-2h-15v-18h25.163l-2.234 3.457a1 1 0 0 0 0 1.086l2.881 4.457-2.881 4.457a1 1 0 0 0 0 1.086l2.234 3.457h-6.163a1 1 0 0 0 0 2h8a1 1 0 0 0 .84-1.543zm-44.959-25v2h-2v-2zm29 9h-6.566l6.566-4.178z"/><path d="m53 44a1 1 0 0 0 1-1v-8.4a1 1 0 1 0 -2 0v8.4a1 1 0 0 0 1 1z"/><path d="m49 30a1 1 0 0 0 -1 1v12a1 1 0 0 0 2 0v-12a1 1 0 0 0 -1-1z"/><path d="m44 31v12a1 1 0 0 0 2 0v-12a1 1 0 0 0 -2 0z"/><path d="m40 31v12a1 1 0 0 0 2 0v-12a1 1 0 0 0 -2 0z"/><path d="m36 31v8.4a1 1 0 1 0 2 0v-8.4a1 1 0 0 0 -2 0z"/><path d="m22 26a1.5 1.5 0 0 1 1.5 1.5 1 1 0 0 0 2 0 3.494 3.494 0 0 0 -2.5-3.337v-1.163a1 1 0 0 0 -2 0v1.163a3.49 3.49 0 0 0 1 6.837 1.5 1.5 0 1 1 -1.5 1.5 1 1 0 0 0 -2 0 3.494 3.494 0 0 0 2.5 3.337v1.163a1 1 0 0 0 2 0v-1.163a3.49 3.49 0 0 0 -1-6.837 1.5 1.5 0 0 1 0-3z"/><circle cx="28" cy="30" r="1"/><circle cx="16" cy="30" r="1"/></g></g></g></svg>