<svg id="Layer_3" enable-background="new 0 0 64 64" height="512" viewBox="0 0 64 64" width="512" xmlns="http://www.w3.org/2000/svg"><path d="m61 31v30h-58v-30z" fill="#732de2"/><path d="m50 19c-4.971 0-9 4.029-9 9v3h18v-3c0-4.971-4.029-9-9-9z" fill="#e58842"/><path d="m32 15c-4.971 0-9 4.029-9 9v7h18v-7c0-4.971-4.029-9-9-9z" fill="#e58842"/><path d="m36 16v-.053c-1.206-.601-2.561-.947-4-.947s-2.794.346-4 .947v.053l4 7z" fill="#732de2"/><path d="m14 19c-4.971 0-9 4.029-9 9v3h18v-3c0-4.971-4.029-9-9-9z" fill="#e58842"/><path d="m57 40v12c-2.76 0-5 2.24-5 5h-14l-1-1h-10l-1 1h-14c0-2.76-2.24-5-5-5v-12c2.76 0 5-2.24 5-5h40c0 2.76 2.24 5 5 5z" fill="#dbc6a9"/><circle cx="14" cy="14" fill="#f4b34a" r="7"/><circle cx="32" cy="10" fill="#f4b34a" r="7"/><circle cx="50" cy="14" fill="#f4b34a" r="7"/><g fill="#0b052b"><path d="m61 30h-1v-2c0-3.334-1.697-6.437-4.42-8.279 1.49-1.453 2.42-3.48 2.42-5.721 0-4.411-3.589-8-8-8s-8 3.589-8 8c0 2.241.93 4.268 2.42 5.721-1.024.693-1.889 1.571-2.586 2.567-.47-2.662-2.005-5.046-4.253-6.567 1.489-1.453 2.419-3.48 2.419-5.721 0-4.411-3.589-8-8-8s-8 3.589-8 8c0 2.241.93 4.268 2.42 5.721-2.248 1.521-3.783 3.904-4.253 6.567-.697-.995-1.563-1.874-2.586-2.567 1.489-1.453 2.419-3.48 2.419-5.721 0-4.411-3.589-8-8-8s-8 3.589-8 8c0 2.241.93 4.268 2.42 5.721-2.723 1.842-4.42 4.945-4.42 8.279v2h-1c-.552 0-1 .447-1 1v30c0 .553.448 1 1 1h58c.552 0 1-.447 1-1v-30c0-.553-.448-1-1-1zm-17-16c0-3.309 2.691-6 6-6s6 2.691 6 6-2.691 6-6 6-6-2.691-6-6zm2.16 7.015c1.141.627 2.449.985 3.84.985s2.699-.358 3.84-.985c2.536 1.399 4.16 4.077 4.16 6.985v2h-16v-2c0-2.908 1.624-5.586 4.16-6.985zm-20.16-11.015c0-3.309 2.691-6 6-6s6 2.691 6 6-2.691 6-6 6-6-2.691-6-6zm7.831 7.78-1.831 3.204-1.831-3.204c.589.139 1.2.22 1.831.22s1.242-.081 1.831-.22zm-9.831 6.22c0-2.695 1.385-5.207 3.606-6.674l3.526 6.17c.178.312.509.504.868.504s.69-.192.868-.504l3.526-6.17c2.221 1.467 3.606 3.979 3.606 6.674v6h-16zm-16-10c0-3.309 2.691-6 6-6s6 2.691 6 6-2.691 6-6 6-6-2.691-6-6zm-2 14c0-2.908 1.624-5.586 4.16-6.985 1.141.627 2.449.985 3.84.985s2.699-.358 3.84-.985c2.536 1.399 4.16 4.077 4.16 6.985v2h-16zm54 32h-56v-28h56z"/><path d="m33 50h-2c-.551 0-1-.448-1-1h-2c0 1.654 1.346 3 3 3v1h2v-1c1.654 0 3-1.346 3-3v-1c0-1.654-1.346-3-3-3h-2c-.551 0-1-.448-1-1v-1c0-.552.449-1 1-1h2c.551 0 1 .448 1 1h2c0-1.654-1.346-3-3-3v-1h-2v1c-1.654 0-3 1.346-3 3v1c0 1.654 1.346 3 3 3h2c.551 0 1 .448 1 1v1c0 .552-.449 1-1 1z"/><path d="m56 34h2v2h-2z"/><path d="m56 56h2v2h-2z"/><path d="m6 34h2v2h-2z"/><path d="m6 56h2v2h-2z"/><path d="m7 53c2.206 0 4 1.794 4 4 0 .553.448 1 1 1h14c.265 0 .52-.105.707-.293l.707-.707h9.172l.707.707c.187.188.442.293.707.293h14c.552 0 1-.447 1-1 0-2.206 1.794-4 4-4 .552 0 1-.447 1-1v-12c0-.553-.448-1-1-1-2.206 0-4-1.794-4-4 0-.553-.448-1-1-1h-40c-.552 0-1 .447-1 1 0 2.206-1.794 4-4 4-.552 0-1 .447-1 1v12c0 .553.448 1 1 1zm1-12.083c2.509-.423 4.494-2.408 4.917-4.917h38.167c.422 2.509 2.408 4.494 4.917 4.917v10.166c-2.509.423-4.494 2.408-4.917 4.917h-12.67l-.707-.707c-.187-.188-.442-.293-.707-.293h-10c-.265 0-.52.105-.707.293l-.707.707h-12.669c-.422-2.509-2.408-4.494-4.917-4.917z"/><path d="m46 45h4v2h-4z"/><path d="m14 45h4v2h-4z"/><path d="m13 24h2v2h-2z"/><path d="m49 24h2v2h-2z"/></g></svg>