<svg height="512" viewBox="0 0 61 60" width="512" xmlns="http://www.w3.org/2000/svg"><g id="Page-1" fill="none" fill-rule="evenodd"><g id="012---Path-Tool" fill-rule="nonzero" transform="translate(0 -1)"><path id="Shape" d="m25 52-7.89-12.27c-.6921598-1.0880358-.818685-2.4425996-.34-3.64l8.49-21.24c.45001-1.1235961 1.5416604-1.8574455 2.752-1.85.5475928.0065716.9880394.4523678.988 1v18.06c-.0078025.2974004-.1562251.5734664-.4.744-1.2995695.9723892-1.882704 2.6336905-1.476 4.205.3575771 1.4206135 1.4718209 2.5267747 2.895 2.874 1.8526272.4714919 3.7799229-.4338178 4.5999002-2.1607137.8199772-1.7268959.3034088-3.792619-1.2329002-4.9302863-.2349567-.1620995-.3783804-.4266531-.386-.712v-18.08c-.0000394-.5476322.4404072-.9934284.988-1 1.2103396-.0074455 2.30199.7264039 2.752 1.85l8.49 21.24c.478685 1.1974004.3521598 2.5519642-.34 3.64l-7.89 12.27z" fill="#ffdc00"/><path id="Shape" d="m45.23 36.09-8.49-21.24c-.4497821-1.1237804-1.5415758-1.8577261-2.752-1.85-.4723889.0086907-.8717744.352221-.951.818.3041341.2902499.5427879.6420937.7 1.032l8.49 21.24c.478685 1.1974004.3521598 2.5519642-.34 3.64l-7.887 12.27h3l7.89-12.27c.6921598-1.0880358.818685-2.4425996.34-3.64z" fill="#fec108"/><rect id="Rectangle-path" fill="#9e9e9e" height="4" rx="1" width="18" x="22" y="52"/><path id="Shape" d="m39 52h-3c.5522847 0 1 .4477153 1 1v2c0 .5522847-.4477153 1-1 1h3c.5522847 0 1-.4477153 1-1v-2c0-.5522847-.4477153-1-1-1z" fill="#707070"/><path id="Shape" d="m34 49h-6c-.5522847 0-1-.4477153-1-1s.4477153-1 1-1h6c.5522847 0 1 .4477153 1 1s-.4477153 1-1 1z" fill="#f57c00"/><path id="Rectangle-path" d="m24 56h14v4h-14z" fill="#91562d"/><path id="Rectangle-path" d="m35 56h3v4h-3z" fill="#6d4122"/><g fill="#e91e63"><circle id="Oval" cx="31" cy="5" r="3"/><circle id="Oval" cx="5" cy="31" r="3"/><circle id="Oval" cx="57" cy="31" r="3"/></g><path id="Shape" d="m29.2 33.6c.497086-.3585635.7940709-.9321157.8-1.545v-18.055c.0000351-1.0983512-.885684-1.9912132-1.984-2h-.016c-1.6162662-.0062904-3.0717456.9771201-3.669 2.479l-8.49 21.24c-.5979893 1.4977088-.4390912 3.1916292.427 4.552l6.898 10.729h-.166c-1.1045695 0-2 .8954305-2 2v2c0 1.1045695.8954305 2 2 2v3c0 .5522847.4477153 1 1 1h14c.5522847 0 1-.4477153 1-1v-3c1.1045695 0 2-.8954305 2-2v-2c0-1.1045695-.8954305-2-2-2h-.168l6.9-10.731c.8645988-1.3602504 1.0227276-3.0531587.425-4.55l-8.49-21.242c-.5976247-1.5004128-2.0519582-2.4827918-3.667-2.477h-.016c-1.098316.0087868-1.9840351.9016488-1.984 2v18.078c.0057147.6023247.2993953 1.1655223.79 1.515.7481114.5571338 1.1945102 1.4305514 1.2078342 2.3632309.013324.9326796-.407943 1.8184924-1.1398342 2.3967691-.8462777.6897512-2.0004579.8653038-3.013544.4583648-1.013086-.406939-1.7251215-1.3321179-1.859112-2.4156258-.1339904-1.0835079.3312199-2.1542693 1.214656-2.795739zm7.8 25.4h-12v-2h12zm2-4h-16v-2h16zm-9.215-14.146c1.5041806.3687574 3.0943807.0250499 4.312-.932 1.2173464-.9615526 1.9194249-2.4336849 1.9004316-3.9848635-.0189932-1.5511785-.7569065-3.005679-1.9974316-3.9371365l-.01-18h.01c.7972783-.0030368 1.5154113.4815344 1.811 1.222l8.489 21.236c.3593425.8969823.2655777 1.9120235-.252 2.728l-7.595 11.814h-10.908l-7.594-11.811c-.5186046-.8166254-.6131097-1.8327417-.254-2.731l8.489-21.237c.2948729-.7382165 1.0100707-1.2220151 1.805-1.221h.009v18c-1.545136 1.1566686-2.2865482 3.0993811-1.9048997 4.9913832s1.8181956 3.3953837 3.6908997 3.8626168z" fill="#000"/><path id="Shape" d="m57.692 27.068c-1.6757814-11.8091427-10.9542257-21.08962499-22.763-22.768-.3323163-1.91065835-1.9906575-3.30546434-3.93-3.30546434s-3.5976837 1.39480599-3.93 3.30546434c-11.8091633 1.67796689-21.08810802 10.9585421-22.764 22.768-1.99394226.3415789-3.42276982 2.1126286-3.33494787 4.1337098.08782194 2.0210812 1.66488856 3.6615159 3.68094452 3.8288486 2.01605597.1673326 3.84199148-1.1906529 4.26181572-3.1695995.41982425-1.9789466-.69746883-3.9613243-2.60781237-4.6269589 1.69998218-10.7782251 10.1530186-19.23247313 20.931-20.934.5483199 1.61096424 2.0612772 2.69419713 3.763 2.69419713s3.2146801-1.08323289 3.763-2.69419713c10.7788215 1.7002454 19.2327845 10.1550161 20.932 20.934-1.8933992.663856-2.998512 2.6313152-2.5802237 4.5936353.4182882 1.9623201 2.2296518 3.3081032 4.2291822 3.1421421 1.9995305-.165961 3.5642364-1.7919578 3.6532844-3.7963868s-1.3253064-3.7627725-3.3022429-4.1053906zm-50.692 3.932c0 1.1045695-.8954305 2-2 2s-2-.8954305-2-2 .8954305-2 2-2c.53043298 0 1.03914081.2107137 1.41421356.5857864.37507276.3750728.58578644.8837806.58578644 1.4142136zm24-24c-1.1045695 0-2-.8954305-2-2s.8954305-2 2-2 2 .8954305 2 2c0 .53043298-.2107137 1.03914081-.5857864 1.41421356-.3750728.37507276-.8837806.58578644-1.4142136.58578644zm26 26c-1.1045695 0-2-.8954305-2-2s.8954305-2 2-2 2 .8954305 2 2-.8954305 2-2 2z" fill="#000"/></g></g></svg>