<?xml version="1.0" encoding="iso-8859-1"?>
<!-- Generator: Adobe Illustrator 19.0.0, SVG Export Plug-In . SVG Version: 6.00 Build 0)  -->
<svg version="1.1" id="Capa_1" xmlns="http://www.w3.org/2000/svg" xmlns:xlink="http://www.w3.org/1999/xlink" x="0px" y="0px"
	 viewBox="0 0 496 496" style="enable-background:new 0 0 496 496;" xml:space="preserve">
<path style="fill:#FFA64D;" d="M249.904,72.048C297.696,114.6,328,177.616,328,248c0,40.632-10.096,78.8-27.824,112l-9.376,16
	c-11.448,17.872-25.232,34.008-40.888,47.952C346.224,422.928,424,344.56,424,248S346.224,73.072,249.904,72.048z"/>
<g>
	<path style="fill:#333333;" d="M496,256v-16h-32.2c-0.648-17.648-3.424-34.752-8.08-51.08l30.608-9.944l-4.936-15.216
		l-30.568,9.928c-6.016-16.368-13.96-31.808-23.56-46.048l26.072-18.944l-9.408-12.936L417.8,114.744
		c-10.688-13.592-22.96-25.864-36.544-36.544l18.984-26.128l-12.936-9.408L368.36,68.736c-14.24-9.592-29.68-17.544-46.048-23.56
		l9.928-30.568l-15.216-4.936L307.08,40.28c-16.328-4.648-33.432-7.432-51.08-8.08V0h-16v32.2
		c-17.648,0.648-34.752,3.424-51.08,8.08l-9.944-30.608l-15.216,4.936l9.928,30.568c-16.368,6.016-31.808,13.96-46.048,23.56
		l-18.944-26.072L95.76,52.072L114.744,78.2C101.152,88.888,88.88,101.16,78.2,114.744L52.072,95.76l-9.408,12.936l26.072,18.944
		c-9.592,14.24-17.544,29.68-23.56,46.048l-30.568-9.928l-4.936,15.216l30.608,9.944c-4.648,16.328-7.432,33.432-8.08,51.08H0v16
		h32.2c0.648,17.648,3.424,34.752,8.08,51.08l-30.608,9.944l4.936,15.216l30.568-9.928c6.016,16.368,13.96,31.808,23.56,46.048
		l-26.072,18.944l9.408,12.936L78.2,381.256c10.688,13.592,22.96,25.864,36.544,36.552L95.76,443.936l12.936,9.408l18.944-26.072
		c14.24,9.592,29.68,17.544,46.048,23.56L163.76,481.4l15.216,4.936l9.944-30.608c16.328,4.648,33.432,7.432,51.08,8.08V496h16
		v-32.2c17.648-0.648,34.752-3.424,51.08-8.08l9.944,30.608l15.216-4.936l-9.928-30.568c16.368-6.016,31.808-13.96,46.048-23.56
		l18.944,26.072l12.936-9.408L381.256,417.8c13.592-10.688,25.864-22.96,36.544-36.552l26.128,18.984l9.408-12.936l-26.072-18.944
		c9.592-14.24,17.544-29.68,23.56-46.048l30.568,9.928l4.936-15.216l-30.608-9.944c4.648-16.328,7.432-33.432,8.08-51.08H496V256z
		 M248,448c-110.28,0-200-89.72-200-200S137.72,48,248,48s200,89.72,200,200S358.28,448,248,448z"/>
	<rect x="176" y="72" style="fill:#333333;" width="16" height="16"/>
	<rect x="232" y="72" style="fill:#333333;" width="16" height="16"/>
	<rect x="120" y="128" style="fill:#333333;" width="16" height="16"/>
	<rect x="176" y="128" style="fill:#333333;" width="16" height="16"/>
	<rect x="232" y="128" style="fill:#333333;" width="16" height="16"/>
	<rect x="64" y="184" style="fill:#333333;" width="16" height="16"/>
	<rect x="120" y="184" style="fill:#333333;" width="16" height="16"/>
	<rect x="176" y="184" style="fill:#333333;" width="16" height="16"/>
	<rect x="232" y="184" style="fill:#333333;" width="16" height="16"/>
	<rect x="288" y="184" style="fill:#333333;" width="16" height="16"/>
	<rect x="64" y="240" style="fill:#333333;" width="16" height="16"/>
	<rect x="120" y="240" style="fill:#333333;" width="16" height="16"/>
	<rect x="176" y="240" style="fill:#333333;" width="16" height="16"/>
	<rect x="232" y="240" style="fill:#333333;" width="16" height="16"/>
	<rect x="288" y="240" style="fill:#333333;" width="16" height="16"/>
	<rect x="64" y="296" style="fill:#333333;" width="16" height="16"/>
	<rect x="120" y="296" style="fill:#333333;" width="16" height="16"/>
	<rect x="176" y="296" style="fill:#333333;" width="16" height="16"/>
	<rect x="232" y="296" style="fill:#333333;" width="16" height="16"/>
	<rect x="288" y="296" style="fill:#333333;" width="16" height="16"/>
	<rect x="120" y="352" style="fill:#333333;" width="16" height="16"/>
	<rect x="176" y="352" style="fill:#333333;" width="16" height="16"/>
	<rect x="232" y="352" style="fill:#333333;" width="16" height="16"/>
	<rect x="176" y="408" style="fill:#333333;" width="16" height="16"/>
	<rect x="232" y="408" style="fill:#333333;" width="16" height="16"/>
</g>
<g>
</g>
<g>
</g>
<g>
</g>
<g>
</g>
<g>
</g>
<g>
</g>
<g>
</g>
<g>
</g>
<g>
</g>
<g>
</g>
<g>
</g>
<g>
</g>
<g>
</g>
<g>
</g>
<g>
</g>
</svg>
