<svg id="Capa_1" enable-background="new 0 0 512 512" height="512" viewBox="0 0 512 512" width="512" xmlns="http://www.w3.org/2000/svg"><g><g><g><circle cx="169.126" cy="342.874" fill="#fb636f" r="161.626"/></g><g><path d="m253.601 205.063c15.101 24.582 23.815 53.51 23.815 84.475 0 89.264-72.362 161.626-161.626 161.626-30.965 0-59.892-8.714-84.475-23.815 28.43 46.281 79.513 77.151 137.811 77.151 89.264 0 161.626-72.362 161.626-161.626 0-58.298-30.87-109.381-77.151-137.811z" fill="#fa4954"/></g><g><circle cx="169.126" cy="342.874" fill="#eff3f5" r="131.321"/></g></g><g><path d="m403.484 7.5c-55.79 0-101.016 45.226-101.016 101.016 0 19.92 5.769 38.491 15.723 54.14l-11.682 42.835 42.835-11.682c15.649 9.954 34.22 15.723 54.14 15.723 55.79 0 101.016-45.226 101.016-101.016s-45.226-101.016-101.016-101.016z" fill="#eff3f5"/></g><g><path d="m464.057 27.671c8.685 14.748 13.673 31.934 13.673 50.288 0 54.813-44.435 99.248-99.248 99.248-25.464 0-48.685-9.594-66.254-25.359 1.776 3.732 3.76 7.345 5.963 10.808l-11.682 42.835 42.835-11.682c15.649 9.954 34.22 15.723 54.14 15.723 55.79 0 101.016-45.226 101.016-101.016 0-33.064-15.887-62.417-40.443-80.845z" fill="#daeaef"/></g><g><circle cx="403.484" cy="108.516" fill="#fce25c" r="70.711"/></g><g><path d="m445.911 51.947c8.878 11.819 14.142 26.508 14.142 42.427 0 39.053-31.659 70.711-70.711 70.711-15.92 0-30.609-5.264-42.427-14.142 12.901 17.173 33.436 28.284 56.57 28.284 39.053 0 70.711-31.659 70.711-70.711-.001-23.133-11.111-43.669-28.285-56.569z" fill="#fbd307"/></g><g><path d="m187.508 174.736c-4.121-.451-7.818 2.532-8.264 6.65-.444 4.118 2.532 7.817 6.65 8.263 78.307 8.468 137.357 74.34 137.357 153.225 0 84.985-69.141 154.126-154.126 154.126s-154.125-69.141-154.125-154.126c0-78.885 59.051-144.757 137.357-153.225 4.118-.445 7.095-4.145 6.65-8.263-.446-4.118-4.124-7.103-8.264-6.65-41.201 4.456-79.258 23.92-107.158 54.808-28.106 31.116-43.585 71.364-43.585 113.33 0 93.256 75.869 169.126 169.126 169.126s169.126-75.87 169.126-169.126c0-41.966-15.479-82.214-43.586-113.331-27.9-30.887-65.957-50.352-107.158-54.807z"/><path d="m30.305 342.874c0 76.546 62.275 138.821 138.821 138.821s138.821-62.275 138.821-138.821-62.275-138.821-138.821-138.821-138.821 62.275-138.821 138.821zm138.821-123.821c68.275 0 123.821 55.546 123.821 123.821s-55.546 123.821-123.821 123.821-123.821-55.546-123.821-123.821 55.546-123.821 123.821-123.821z"/><path d="m167.384 354.857 23.531 40.758c2.204 3.819 7.388 4.904 10.946 2.288 3.037-2.234 3.928-6.525 2.045-9.788l-23.527-40.75c.555-1.39.869-2.902.869-4.491 0-3.86-1.811-7.292-4.622-9.511v-57.159c0-4.142-3.357-7.5-7.5-7.5s-7.5 3.358-7.5 7.5v57.159c-2.811 2.22-4.622 5.651-4.622 9.511 0 6.102 4.513 11.136 10.38 11.983z"/><path d="m169.126 250.801c4.143 0 7.5-3.358 7.5-7.5v-6.494c0-4.142-3.357-7.5-7.5-7.5s-7.5 3.358-7.5 7.5v6.494c0 4.142 3.357 7.5 7.5 7.5z"/><path d="m112.845 260.391c1.39 2.406 3.91 3.751 6.502 3.751 1.272 0 2.563-.324 3.743-1.006 3.587-2.071 4.816-6.658 2.745-10.245l-3.247-5.624c-2.072-3.587-6.659-4.816-10.245-2.745-3.587 2.071-4.816 6.658-2.745 10.245z"/><path d="m73.52 296.335 5.624 3.247c1.182.682 2.471 1.006 3.743 1.006 2.592 0 5.113-1.345 6.502-3.751 2.071-3.587.842-8.174-2.745-10.245l-5.624-3.247c-3.589-2.072-8.175-.843-10.245 2.745-2.072 3.587-.842 8.175 2.745 10.245z"/><path d="m63.059 350.374h6.494c4.143 0 7.5-3.358 7.5-7.5s-3.357-7.5-7.5-7.5h-6.494c-4.143 0-7.5 3.358-7.5 7.5s3.357 7.5 7.5 7.5z"/><path d="m79.144 386.166-5.624 3.247c-3.587 2.071-4.816 6.658-2.745 10.245 1.39 2.406 3.91 3.751 6.502 3.751 1.272 0 2.563-.324 3.743-1.006l5.624-3.247c3.587-2.071 4.816-6.658 2.745-10.245-2.072-3.588-6.66-4.817-10.245-2.745z"/><path d="m112.343 441.226c1.182.682 2.471 1.006 3.743 1.006 2.592 0 5.113-1.346 6.502-3.751l3.247-5.624c2.071-3.587.842-8.174-2.745-10.245-3.59-2.072-8.176-.842-10.245 2.745l-3.247 5.624c-2.072 3.587-.842 8.174 2.745 10.245z"/><path d="m169.126 434.947c-4.143 0-7.5 3.358-7.5 7.5v6.494c0 4.142 3.357 7.5 7.5 7.5s7.5-3.358 7.5-7.5v-6.494c0-4.142-3.357-7.5-7.5-7.5z"/><path d="m215.663 438.48c1.39 2.407 3.911 3.752 6.503 3.752 1.272 0 2.562-.324 3.742-1.006 3.588-2.071 4.817-6.657 2.747-10.245l-3.246-5.624c-2.072-3.588-6.659-4.817-10.245-2.747-3.588 2.071-4.817 6.657-2.747 10.245z"/><path d="m251.608 399.156 5.623 3.247c1.182.682 2.472 1.006 3.744 1.006 2.592 0 5.112-1.345 6.502-3.751 2.071-3.587.843-8.174-2.744-10.246l-5.623-3.247c-3.59-2.072-8.175-.842-10.246 2.745s-.843 8.174 2.744 10.246z"/><path d="m261.199 342.874c0 4.142 3.357 7.5 7.5 7.5h6.494c4.143 0 7.5-3.358 7.5-7.5s-3.357-7.5-7.5-7.5h-6.494c-4.142 0-7.5 3.358-7.5 7.5z"/><path d="m255.366 300.589c1.272 0 2.563-.325 3.744-1.006l5.623-3.247c3.587-2.072 4.815-6.659 2.744-10.246s-6.658-4.815-10.246-2.745l-5.623 3.247c-3.587 2.072-4.815 6.659-2.744 10.246 1.39 2.406 3.91 3.751 6.502 3.751z"/><path d="m215.164 263.137c1.181.682 2.47 1.006 3.742 1.006 2.592 0 5.113-1.346 6.503-3.752l3.246-5.624c2.07-3.587.841-8.174-2.747-10.245-3.587-2.07-8.174-.842-10.245 2.747l-3.246 5.624c-2.07 3.586-.841 8.173 2.747 10.244z"/><path d="m403.483 0c-22.265 0-43.663 6.695-61.881 19.362-3.401 2.365-4.241 7.039-1.877 10.439 2.366 3.401 7.039 4.242 10.439 1.876 15.693-10.91 34.131-16.677 53.319-16.677 51.566 0 93.517 41.951 93.517 93.516s-41.951 93.517-93.517 93.517c-17.819 0-35.148-5.032-50.114-14.551-1.783-1.134-3.961-1.463-5.999-.908l-30.173 8.229 8.229-30.172c.557-2.039.227-4.216-.907-5.999-9.52-14.965-14.551-32.295-14.551-50.115 0-19.089 5.712-37.447 16.52-53.089 2.354-3.408 1.5-8.079-1.907-10.434-3.411-2.355-8.079-1.5-10.435 1.907-12.546 18.16-19.178 39.466-19.178 61.615 0 19.549 5.223 38.595 15.133 55.299l-10.828 39.703c-.709 2.597.029 5.374 1.932 7.277 1.904 1.904 4.681 2.642 7.277 1.933l39.704-10.828c16.704 9.912 35.748 15.133 55.298 15.133 59.836 0 108.517-48.68 108.517-108.517-.001-59.836-48.682-108.516-108.518-108.516z"/><path d="m403.483 186.728c43.126 0 78.212-35.085 78.212-78.211s-35.086-78.211-78.212-78.211-78.211 35.085-78.211 78.211 35.085 78.211 78.211 78.211zm0-141.423c34.855 0 63.212 28.356 63.212 63.211s-28.356 63.211-63.212 63.211c-34.854 0-63.211-28.356-63.211-63.211s28.357-63.211 63.211-63.211z"/><path d="m408.534 131.321h-25.254c-4.143 0-7.5 3.358-7.5 7.5s3.357 7.5 7.5 7.5h12.703v6.642c0 4.142 3.357 7.5 7.5 7.5s7.5-3.358 7.5-7.5v-6.777c11.342-1.226 20.203-10.855 20.203-22.518 0-12.491-10.162-22.652-22.652-22.652h-10.102c-4.22 0-7.652-3.433-7.652-7.652s3.433-7.652 7.652-7.652h25.254c4.143 0 7.5-3.358 7.5-7.5s-3.357-7.5-7.5-7.5h-12.703v-6.642c0-4.142-3.357-7.5-7.5-7.5s-7.5 3.358-7.5 7.5v6.777c-11.342 1.225-20.203 10.855-20.203 22.518 0 12.491 10.162 22.652 22.652 22.652h10.102c4.22 0 7.652 3.433 7.652 7.653s-3.432 7.651-7.652 7.651z"/></g></g></svg>